<?xml version="1.0" encoding="UTF-8"?><svg id="a" xmlns="http://www.w3.org/2000/svg" viewBox="0 0 3230.81 2895.14"><defs><style>.b{fill:#d8db23;opacity:.2;}.b,.c,.d,.e,.f,.g,.h,.i,.j{isolation:isolate;}.c{fill:#ce4b27;opacity:.7;}.k{fill:#ed2024;}.l{font-family:FreestyleScript-Regular, Freestyle Script;font-size:306.39px;}.d{fill:#c77a29;opacity:.5;}.e{fill:lime;opacity:.1;}.f{fill:#e5e652;opacity:.3;}.g{fill:#f47527;opacity:.6;}.h{fill:#bf2026;opacity:.9;}.i{fill:#ffca10;opacity:.4;}.m{fill:#efefef;}.j{fill:#e82825;opacity:.8;}.n{fill:#3a489e;}</style></defs><rect class="m" width="3230.81" height="2895.14"/><path class="g" d="M1586.61,616.72c33.21-.59,66.14,.18,98.75,2.25l89.82-211.81c-61.84-4.97-124.62-5.16-187.95-.26l-42.78,211.32c13.99-.73,28.05-1.24,42.16-1.49h0Z"/><path class="d" d="M1418.87,637.75l36.39-209.41c-4.35,.91-8.7,1.84-13.04,2.79-51.16,11.27-100.94,25.67-149.2,42.94l5.3,192.2c39.41-11.5,79.62-21.05,120.54-28.53h0Z"/><path class="i" d="M1186.17,705.09l-5.09-184.56c-45.13,21.41-88.66,45.47-130.47,71.93l36.5,157.69c32.26-16.44,65.3-31.48,99.06-45.05h0Z"/><path class="c" d="M1952.23,659.83l127.45-195.85c-65.06-21.62-132.08-37.77-200.48-48.05l-83.17,212.47c53.12,7.05,105.26,17.6,156.21,31.43h-.01Z"/><path class="h" d="M2480.66,959.01l165.76-107.31c-51.33-61.16-107.8-117.02-168.53-166.98l-149.96,150.24c53.9,37.24,104.96,78.74,152.73,124.05h0Z"/><path class="f" d="M984.25,808.95l-33.79-145.99c-34.15,26.63-66.88,54.99-98.09,84.93l52.95,115.72c25.6-19.21,51.92-37.45,78.93-54.66Z"/><path class="j" d="M2226.83,772l157.21-157.5c-61.73-41.87-126.93-78.09-194.85-108.17l-123.83,190.29c55.71,21.21,109.65,46.44,161.47,75.38h0Z"/><path class="b" d="M767.7,837.23c-24.28,28.18-47.37,57.41-69.22,87.61-23.98,33.15-46.47,67.47-67.38,102.82l43.58,59.28c24.7-30.69,50.71-60.2,77.96-88.42,19.87-20.58,40.41-40.48,61.56-59.66l-46.5-101.63h0Z"/><path class="e" d="M585.33,1111.72c-18.15,36.35-34.71,73.6-49.61,111.65-10.02,25.58-19.27,51.53-27.76,77.79l20.15,11.41c11.24-21.84,23.04-43.33,35.4-64.42,19.92-33.99,41.27-66.97,63.96-98.86l-42.14-37.57h0Z"/><path class="k" d="M2844.69,1159.09c-45.26-86.35-111.81-192.01-111.81-192.01-4.94-7.41-9.95-14.74-15.02-22.03l-154.48,100.01c46.77,53.33,89.44,110.76,127.46,171.74,21,33.67,40.58,68.43,58.64,104.18l117.03-43.89,19.16-17.72c-.48-17.51-17.99-56.4-40.98-100.27h0Z"/><path class="n" d="M1719.52,2064.39l807.57-657.85c22.81-18.58,2.14-56.17-24.59-44.72l-946.43,405.33c-58.36,24.99-99.3,82.17-103.74,148.17-2.26,33.59,4.68,68.22,21.92,99.58s42.34,54.98,71.18,69.72c56.67,28.96,124.3,20.33,174.09-20.24h0Zm-180.63-85.31c-25.74-43.53-11.15-100.71,31.88-124.9,38.96-21.91,88.11-8.08,111.42,31.34,25.74,43.53,11.15,100.71-31.88,124.9-38.96,21.91-88.11,8.08-111.42-31.35h0Z"/><text class="l" transform="translate(234.54 2560.3) scale(1.65 1)"><tspan x="0" y="0">Zero to One Hundred</tspan></text></svg>