<?xml version="1.0" encoding="UTF-8"?><svg id="a" xmlns="http://www.w3.org/2000/svg" viewBox="0 0 2398.12 1647.99"><defs><style>.b{fill:#c77a29;opacity:.6;}.b,.c,.d,.e,.f,.g,.h,.i,.j{isolation:isolate;}.k{fill:#ff0006;font-family:Arial-BoldItalicMT, Arial;font-size:306.39px;}.c{fill:#ffca10;opacity:.5;}.d{fill:#bf2026;opacity:.9;}.e{fill:#ce4b27;opacity:.7;}.f{fill:#d8db23;}.f,.g,.h{opacity:.4;}.g{fill:#e5e652;}.l{fill:#ed2024;}.h{fill:lime;}.m{font-family:FreestyleScript-Regular, Freestyle Script;font-size:268.38px;}.i{fill:#f47527;opacity:.7;}.n{letter-spacing:-.02em;}.j{fill:#e82825;opacity:.8;}</style></defs><path class="i" d="M1099.06,213.39c33.21-.59,66.14,.18,98.75,2.25L1287.63,3.83c-61.84-4.97-124.62-5.16-187.95-.26l-42.78,211.32c13.99-.73,28.05-1.24,42.16-1.49h0Z"/><path class="b" d="M931.32,234.42l36.39-209.41c-4.35,.91-8.7,1.84-13.04,2.79-51.16,11.27-100.94,25.67-149.2,42.94l5.3,192.2c39.41-11.5,79.62-21.05,120.54-28.53h0Z"/><path class="c" d="M698.62,301.76l-5.09-184.56c-45.13,21.41-88.66,45.47-130.47,71.93l36.5,157.69c32.26-16.44,65.3-31.48,99.06-45.05h0Z"/><path class="e" d="M1464.68,256.5l127.45-195.85c-65.06-21.62-132.08-37.77-200.48-48.05l-83.17,212.47c53.12,7.05,105.26,17.6,156.21,31.43h-.01Z"/><path class="d" d="M1993.11,555.68l165.76-107.31c-51.33-61.16-107.8-117.02-168.53-166.98l-149.96,150.24c53.9,37.24,104.96,78.74,152.73,124.05h0Z"/><path class="g" d="M496.7,405.62l-33.79-145.99c-34.15,26.63-66.88,54.99-98.09,84.93l52.95,115.72c25.6-19.21,51.92-37.45,78.93-54.66Z"/><path class="j" d="M1739.28,368.67l157.21-157.5c-61.73-41.87-126.93-78.09-194.85-108.17l-123.83,190.29c55.71,21.21,109.65,46.44,161.47,75.38h0Z"/><path class="f" d="M280.15,433.9c-24.28,28.18-47.37,57.41-69.22,87.61-23.98,33.15-46.47,67.47-67.38,102.82l43.58,59.28c24.7-30.69,50.71-60.2,77.96-88.42,19.87-20.58,40.41-40.48,61.56-59.66l-46.5-101.63h0Z"/><path class="h" d="M97.78,708.39c-18.15,36.35-34.71,73.6-49.61,111.65-10.02,25.58-19.27,51.53-27.76,77.79l20.15,11.41c11.24-21.84,23.04-43.33,35.4-64.42,19.92-33.99,41.27-66.97,63.96-98.86l-42.14-37.57h0Z"/><path class="l" d="M2357.14,755.76c-45.26-86.35-111.81-192.01-111.81-192.01-4.94-7.41-9.95-14.74-15.02-22.03l-154.48,100.01c46.77,53.33,89.44,110.76,127.46,171.74,21,33.67,40.58,68.43,58.64,104.18l117.03-43.89,19.16-17.72c-.48-17.51-17.99-56.4-40.98-100.27h0Z"/><path d="M1103.39,1018.71l1026.7-175.58c29-4.96,29.49-47.85,.59-51.03l-1023.4-112.58c-63.1-6.95-126.87,22.7-163.2,77.98-18.49,28.13-29.48,61.7-29.89,97.48-.41,35.78,9.82,68.69,27.68,95.71,35.1,53.09,98.23,78.84,161.53,68h0Zm-115.31-163.12c-1-50.56,39.83-93.17,89.19-93.07,44.7,.09,80.69,36.3,81.6,82.09,1,50.56-39.83,93.17-89.19,93.07-44.7-.09-80.69-36.3-81.59-82.1h0Z"/><text class="m" transform="translate(22.74 1560.19) scale(1.57 1)"><tspan x="0" y="0">Zero to One Hundred</tspan></text><text class="k" transform="translate(272.02 1316.3) scale(1.65 1)"><tspan x="0" y="0">BENN</tspan><tspan class="n" x="868.15" y="0">Y</tspan></text></svg>